<svg xmlns="http://www.w3.org/2000/svg" xmlns:xlink="http://www.w3.org/1999/xlink" version="1.1" id="Layer_1" x="0px" y="0px" width="100%" viewBox="0 0 512 512" enable-background="new 0 0 512 512" xml:space="preserve">
    <path fill="#000000" opacity="1.000000" stroke="none" d=" M1.223546,474.297058   C1.000000,329.312439 1.000000,184.624878 1.000000,39.468658   C5.108854,24.434292 13.696240,13.423046 26.871634,5.885432   C31.439861,3.271959 36.137493,1.534518 41.704803,1.223489   C185.020889,1.000000 328.041779,1.000000 471.531342,1.000000   C489.987335,3.594472 501.562561,14.578425 509.798126,29.914427   C511.719818,33.492889 512.419678,37.382835 512.775513,41.699951   C513.000000,185.020889 513.000000,328.041779 513.000000,471.531342   C510.405701,489.987488 499.421478,501.562531 484.085571,509.798157   C480.507111,511.719818 476.617188,512.419800 472.300049,512.775513   C328.979095,513.000000 185.958206,513.000000 42.468658,513.000000   C24.039391,510.370148 12.446733,499.417542 4.187911,484.091949   C2.584635,481.116791 2.037662,477.853027 1.223546,474.297058  z"/>
    <path fill="#FFFFFF" opacity="1.000000" stroke="none" d=" M513.000000,41.531342   C510.295563,34.224632 507.455902,26.578520 502.055481,20.081150   C494.145905,10.564946 484.509125,4.083354 472.124664,1.375964   C484.764465,1.000000 497.530090,1.087280 510.292450,0.923226   C512.721008,0.892008 513.087646,1.495705 513.063416,3.764581   C512.930420,16.196085 513.000000,28.629757 513.000000,41.531342  z"/>
    <path fill="#FFFFFF" opacity="1.000000" stroke="none" d=" M472.468658,513.000000   C479.775360,510.295563 487.421478,507.455872 493.918854,502.055542   C503.435181,494.145966 509.916565,484.509125 512.624023,472.124695   C513.000000,484.764465 512.912720,497.530090 513.076782,510.292450   C513.108032,512.721069 512.504272,513.087708 510.235413,513.063477   C497.803894,512.930420 485.370239,513.000000 472.468658,513.000000  z"/>
    <path fill="#FFFFFF" opacity="1.000000" stroke="none" d=" M1.000000,474.468658   C4.311998,478.837585 5.474323,484.676270 8.828350,489.610443   C16.936924,501.538910 27.576956,509.352448 41.875320,512.624023   C29.237261,513.000000 16.473444,512.914612 3.712736,513.075562   C1.300029,513.106018 0.907842,512.525696 0.935037,510.241272   C1.075107,498.474670 1.000000,486.705566 1.000000,474.468658  z"/>
    <path fill="#FFFFFF" opacity="1.000000" stroke="none" d=" M41.531342,1.000000   C34.712021,3.657207 27.505665,6.251761 21.182751,11.146094   C12.283948,18.034328 6.090697,26.521404 2.886153,37.264526   C2.713597,37.843018 2.120875,38.296181 1.361872,38.903839   C1.000000,27.232590 1.096743,15.463734 0.921121,3.698944   C0.884518,1.246917 1.526864,0.915537 3.772225,0.938671   C16.201271,1.066731 28.632320,1.000000 41.531342,1.000000  z"/>
    <path fill="#FFFFFF" opacity="1.000000" stroke="none" d=" M435.997925,433.802948   C436.131805,436.062561 434.926544,436.004333 433.703094,436.003967   C410.040436,435.996796 386.377441,435.934906 362.715546,436.071198   C359.289795,436.090942 360.008270,434.076355 360.007294,432.203674   C359.995850,410.707336 360.000000,389.210968 360.000000,367.714630   C360.000000,346.551544 359.899658,325.387817 360.039246,304.225647   C360.117493,292.362732 356.914337,281.526276 348.485046,273.267822   C337.845123,262.843567 322.000916,257.753204 305.920074,265.045715   C289.806549,272.353088 282.151306,285.448029 282.067749,302.767120   C281.861206,345.592194 281.943787,388.419098 282.094788,431.244659   C282.108521,435.144043 281.144196,436.132965 277.243164,436.097778   C254.915436,435.896545 232.584274,435.913605 210.256119,436.089447   C206.747177,436.117065 205.909775,435.248688 205.915100,431.744202   C206.027359,357.923553 206.026276,284.102692 205.917511,210.282028   C205.912415,206.821381 206.676468,205.879486 210.229935,205.908096   C232.724670,206.089142 255.222183,206.082352 277.717102,205.913177   C281.180908,205.887131 282.210876,206.664627 282.093842,210.231934   C281.806763,218.983536 282.000000,227.750885 282.000000,237.445007   C285.666840,233.423706 288.740845,230.121094 291.739227,226.751190   C300.045715,217.415558 310.358643,211.160538 321.861694,206.523895   C330.546356,203.023270 339.578400,200.742447 348.792023,201.155151   C368.666473,202.045349 386.474854,208.786072 402.098114,221.475037   C415.998077,232.764389 425.408813,246.856842 431.288544,263.629395   C434.563477,272.971558 435.802124,282.675232 435.864044,292.343811   C436.164917,339.334045 435.999847,386.327332 435.997925,433.802948  z"/>
    <path fill="#FFFFFF" opacity="1.000000" stroke="none" d=" M154.000000,300.000000   C154.000000,343.996429 153.934418,387.493134 154.105988,430.988892   C154.122330,435.134857 153.166321,436.154602 148.997849,436.110809   C126.668808,435.876129 104.335526,435.928711 82.005028,436.078674   C78.740814,436.100555 77.921303,435.248291 77.925568,431.992554   C78.022316,357.998749 78.022148,284.004730 77.926003,210.010925   C77.921776,206.761871 78.730598,205.899338 82.001556,205.920990   C104.665375,206.070908 127.331108,206.070343 149.994934,205.921417   C153.259033,205.899963 154.091431,206.750061 154.077103,210.007645   C153.946014,239.837967 154.000000,269.669098 154.000000,300.000000  z"/>
    <path fill="#FFFFFF" opacity="1.000000" stroke="none" d=" M144.620575,151.781097   C136.358429,158.371170 126.926529,161.603561 117.076500,161.749329   C107.049698,161.897720 97.450310,158.871933 89.079903,152.663803   C79.513763,145.568832 73.483261,135.951706 71.495270,124.646362   C69.106461,111.061653 71.978882,98.118492 81.286469,87.191460   C91.983276,74.633507 105.726997,69.636421 121.870094,71.070549   C129.340240,71.734184 136.250137,74.719032 142.316376,78.986710   C150.873215,85.006584 156.878464,93.217155 159.685699,103.371338   C164.135971,119.468628 160.867691,133.972504 149.848907,146.613693   C148.319748,148.367996 146.575836,149.935104 144.620575,151.781097  z"/>
</svg>